<svg xmlns="http://www.w3.org/2000/svg" viewBox="0 0 150 184">
<!-- SVG created with Arrow, by QuiverAI (https://quiver.ai) -->
  <style type="text/css">.cls-0 {fill:#D6AB1A;}
.cls-1 {fill:#1E3769;}
.cls-2 {fill-rule:evenodd;clip-rule:evenodd;fill:#F0F4F5;}
.cls-3 {fill:#EEF1F2;}
.cls-4 {fill:#FFFFFF;}
.cls-5 {fill:#CE9B12;}
.cls-6 {fill:none;stroke:#DAAD1C;stroke-width:0.25;stroke-miterlimit:10;}
.cls-7 {fill:#CBA014;}</style>
  <path class="cls-0" d="m49 29.9c-4.4 4.7-9.9 13.1-10.5 23.6 2.3-9.5 5.7-15.9 11.4-21.8l1.3-0.5c4.2-4 11.7-8.2 19-9.7-5.8 2.9-9.7 8.1-12.3 12.4-2-0.6-4.4-1.6-6.5-3.2l-0.1 0.5c1.7 1.4 4.2 2.5 6.3 3.2-2.3 4.8-3.9 10.7-3.9 14.9 1.6-5.4 2.6-10 4.7-14.2 2.9 1 6.6 1.9 10.8 2.2-0.6 3.3-0.6 6.3-0.5 7.2l1.4-7.1c2.2 0.2 8.6 0.5 15.9 0l1.7 8c0.2-2-0.3-5.5-0.9-8.2 3.7-0.4 7.5-1 10.9-2.1 1.9 3.4 3.4 8 4.3 12.6 0-3.8-1.4-8.8-3.4-13.1 2.4-0.8 4.6-1.7 6.5-2.9v-0.9c-2.3 1.3-4.4 2.3-7.1 3-2.9-5.7-8.5-10.6-13.4-12.8 7.2 0.4 16.2 5.2 20.1 8.9 0.4 0.4 0.2 0.4 0.3 0.9v0.8c6.5 5.6 10.3 13 11.9 21.9-0.6-17.8-15.8-35.2-36.8-35.2-11.2-0.4-22.4 3.3-31.1 11.6zm26.8-9.3c-3.1 3.7-5 9.3-6.5 15.8-3.4-0.3-7.2-0.9-10.4-2.2 5-8.2 10.3-11.6 16.9-13.8v0.2zm1.3 0h1.6c3.3 3.3 5.6 8.7 7.1 15.7-5.5 0.5-10.7 0.5-15.7 0.2 1.3-5.9 3.6-12.5 7-15.9zm2.3-0.2c5.1 0.2 12.4 4.2 17.8 13.7-3.2 1-6.9 1.6-10.5 2.1-1.3-6.1-3.5-12.5-7.3-15.8z"/>
  <path class="cls-1" d="m73.5 3c-20.5 0.2-49.7 16.1-57.9 41.5-5.6 17.9-2.1 40.2 10.8 54.4 3.4 3.5 7 5 10.2 4 4.9-1 7.5-6.7 12.1-10.2v-0.4c-6.3-5.1-18.4-17.2-18.8-38.8-0.4-21.2 16.1-46.2 43.6-50.5z"/>
  <path class="cls-1" d="m50.1 49.8c-3.3-0.1-4.1 2.4-4 4.3 2.5-1.7 5.1-1.7 7.5-0.4 0.2-2.8-1-3.8-3.5-3.9z"/>
  <path class="cls-1" d="m53.6 54.2c-2.3-1-4.7-1.1-7.9 0.4-2.8 2.1-3.3 5.8-1.7 9.1 0.4 1.2 1.7 3.3 1.8 3.4v2.1l-1.2 1.4c-2.6 0.9-5.6 1.8-5.3 4.8s3.3 5.8 3.6 5.7l0.8-0.7 0.4-2.1 0.5-0.1c2.6 1 7.4 1.1 10 0.4 0.6-0.2 1.1-0.5 1.1-1.2 0-0.9 0.3-4.4 0.1-5.4-0.3-0.8-1.1-1.3-1.4-1.4l-0.1-3.2 1.8-3.5c1.3-3.5 0.2-8.4-2.5-9.7z"/>
  <path class="cls-3" d="m50.2 68.6c-3.2 0-5.2-4-4.8-6.9 1.6-0.7 5-1 6.5-3 1-0.3 2.7 2 2.7 3.9 0 2-1.7 6-4.4 6z"/>
  <path class="cls-3" d="m46.9 68.6v1.7c-1.2 1.2 0 3.7 1 3.8 1.2 0.1 1.1-0.9 2.8-1.1l0.9 1.4 1.1 0.6c1.4-1.4 2-3.1 0.7-5l-0.2-2.1c-2.3 2.4-4 2.4-6.3 0.7z"/>
  <path class="cls-4" d="m44.8 78.2h-0.8c-1-2-0.7-5-0.7-6.8l1.3-0.5 0.2 7.3z"/>
  <path class="cls-1" d="m81.5 46.2c-2.3-1.5-4-2.1-7.5-1.9-2.2 0.1-5 1.3-6.4 2.3-1.6 1.5-0.1 4-0.5 6.6-0.7 1.2-1.7 3.8 0.5 6 0.8 1 1.6 2.7 1.6 3l-0.2 3.4-1.9 0.5-3.7 1.5c-1 0.6-4.2 1-5.3 5.8-0.5 2.2-0.2 11.7-0.2 15.2l4.8-0.5-0.1-6.2h1l0.1-4.2 22-0.1-0.2 11.8 5.4-0.5c0-4.8 0.1-8.9-0.3-14.3-0.2-3.9-2.7-5.8-5-6.4l-4.5-2-2-0.3-0.2-2.9c0.7-3 2-3.9 2.6-5 1.2-1.9 0.1-4.4-0.1-5.1 0-2.9 1.2-5.5 0.1-6.7z"/>
  <path class="cls-2" d="m67.9 54.9 0.8 0.5 1.3-0.4c1-1.5 3.7-2.1 6.6-1.6 1.8 0.2 3.5 2.2 3.4 3.2-0.6 3.1-1.3 7-5.6 7.6-4.4 0.2-5.8-4.6-5.7-7l-0.8-0.2v-2.1z"/>
  <path class="cls-3" d="m70 64v2.6l4.5 6c1.5-1.2 4.1-5 4.1-5.7l-0.4-3.2c-1.3 1.3-2.6 2.9-4.8 2.4-2.1-0.3-2.4-1.5-3.4-2.1z"/>
  <polygon class="cls-3" points="64.5 67 65.4 76.9 68.4 76.9 67.2 66.1"/>
  <polygon class="cls-3" points="81.4 66.2 80.9 76.9 83 76.9 83.6 67"/>
  <path class="cls-4" d="m64 77.9c-0.3 0.1-0.4 0-0.3 4h-1v6c0.2 0.5 0.3 0.5 0.5 0.5h22.2l-0.2-10.7-21.2 0.2z"/>
  <path class="cls-1" d="m93.7 48.2c-1 0.4-4.4 0.8-4.4 2.7-0.2 2 2.5 3.3 2.9 3.5l0.4 1.8-0.8 1.8c-1.2 1.5-0.7 4.2 0.6 6.2 0.8 1.7 1.6 4.7 4.8 4.4 2.7-0.2 3.5-1.7 3.5-1.7l1.7-3.3c1.3-1.2 1-4.1-0.2-5.2l0.2-3.2c1-1.3 2.6-1.3 2.2-4.3-1.6-2.2-4.6-2.3-4.6-2.7-0.9-1.3-1.8-2-3.4-2-1.7 0.2-2.2 1.2-2.5 1.9l-0.4 0.1z"/>
  <path class="cls-1" d="m93.2 67.6c-0.8 1.5-1.6 2.4-3 3.4 0.2 0.5 0.9 2.4 0.8 2.6 2.4-1 4.6-1 6.7-1.5 1.7-0.5 3.3-1.5 3.5-2.2v-1.2l0.8 1.2c2 1.5 6.4 1.7 7 3.1l0.9 15.6c-0.9 0.5-3.7 2.3-4.7 2-0.6 1-3.8 4.4-4.2 4.1 0.5-3.8 1.1-7.5-4.4-6.8l-4.8 0.7 0.1-16 0.5 2v13.8l-0.3 0.2h-0.5c0.3-14.9-1.2-17.2-2.7-18.7l4.3-2.3z"/>
  <path class="cls-3" d="m93.2 67.6c0.8 1.6 2.9 2.8 4 2.8 1.8-0.3 3.4-1.3 3.4-1.7l-0.2-1.8c-0.4 1.2-5.3 3.5-7.2 0.7z"/>
  <path class="cls-3" d="m91.1 73c0.8 0 4.1-0.3 5.9-0.6 3.2-0.9 4.6-2.5 4.1-3.3-2 1.3-2.7 2-4.9 2.4-1.8 0.2-4.5 1.1-5.2 1.5z"/>
  <path class="cls-3" d="m94 74.4v1.2l1.1 0.3 0.5-0.5v-0.8l-0.6-0.6-1 0.4z"/>
  <path class="cls-3" d="m94.1 79.5v1.4l1.1 0.1 0.5-0.4v-0.9l-0.5-0.3-1.1 0.1z"/>
  <path class="cls-3" d="m94.1 84.6-0.1 1.1 1.1 0.4 0.5-0.4v-1.1l-0.5-0.2-1 0.2z"/>
  <path class="cls-3" d="m100.2 74.2v1.4l1.2 0.3 0.6-0.3v-1l-0.5-0.5-1.3 0.1z"/>
  <path class="cls-3" d="m100.2 79.6v1.3l1.2 0.2 0.5-0.4-0.1-1.1-0.4-0.2-1.2 0.2z"/>
  <path class="cls-3" d="m100.2 84.6v1.3l1.2 0.2 0.5-0.4-0.1-1.1-0.6-0.2-1 0.2z"/>
  <path class="cls-4" d="m105 92.7-0.3-12.7c-0.1-0.1 0.4-2 0.5-1.9l-0.2 14.6z"/>
  <path class="cls-3" d="m105 92.6v-12.4c0-1.2 0-2 0.2-1.8l-0.1 14-0.1 0.2z"/>
  <path class="cls-4" d="m105 80v12.4l0.1-0.2v-14l-0.1 1.8z"/>
  <path class="cls-3" d="m105.1 78.7v13.4l0.1-0.1-0.1-13.9v0.6z"/>
  <path class="cls-3" d="m105.2 78.1v13.8l-0.1 0.2 0.1-14z"/>
  <path class="cls-4" d="m105.2 78.1v13.9l0.5-0.4-0.5-13.9v0.4z"/>
  <path class="cls-1" d="m112.2 59.1-2.3 13.5c1.7-0.4 2.7-2 2.7-2l-0.9 15.6c0.5 0.4 4.2 0 5.9-0.3 2.5-0.4 3.5-0.2 5.3 0l0.3-5.9-0.1-7.6c-1-0.9-4.4-1.8-5-3.5l-4.9-2.9-1-6.9z"/>
  <path class="cls-1" d="m110.9 72.9 1.3 13.7h2.8c2.9-0.4 6-1.1 7.6-0.7h0.4l-0.4-13.9c-1.1-0.8-4.6-2.1-4.9-3.3l-3.5 0.2c-0.2 1.1-2.1 3.7-3.3 4z"/>
  <path class="cls-3" d="m112.2 71.5 3 5.6-0.1 4.3h-4.4l-0.1-8.8 1.6-1.1z"/>
  <path class="cls-3" d="m112.2 70.9 3.2 7.7 4-6.9 0.2-1.7h-5.9l-1.5 0.9z"/>
  <path class="cls-1" d="m112.6 67c-0.7-1.5-2.6-3.9-2.1-6.1 0.9-3.3 3.5-4.8 4.9-3.5 0.8-3.2 2.5-4.3 2.8-0.4 0.9-0.9 2.4-0.9 3.3 1.4a9 9 0 0 1-1.3 8.6l-2.2 2.7-3.6-0.3-1.8-2.4z"/>
  <path class="cls-3" d="m112.4 69.9c1.5 3.7 6.3 3.7 5.8 0.5l-5.8-0.5z"/>
  <path class="cls-1" d="m112.6 69.9c0.8 3.1 5.6 3.1 6.6-0.5l0.2 1.7-4 7.3-3.9-6.9 1.1-1.6z"/>
  <path class="cls-3" d="m110 73 0.1 14.9h0.5v-13.7l-0.6-1.2z"/>
  <path class="cls-3" d="m110 72.9c0.9 0.8 0.6 7 0.7 15.5l-0.6 0.2-0.1-15.7z"/>
  <path class="cls-1" d="m121.1 71.4 1.5 0.6c1.6 0.6 4 1 3.8 7.6 0 2.4-0.2 4.8-2.8 6.3h-1.2c-0.2-2.8-1.4-14.2-1.3-14.5z"/>
  <path class="cls-3" d="m121.5 71.4v10h-10.9l-0.6 2h12.2l0.2 2.5-0.2-2.5h0.2v2.7-0.2 0.2h-0.5l0.2-2.7h0.3v2.5-2.5h-0.2v-2h0.2v4.5h0.2v-4.5l-0.5 0.3-0.2-10-0.4-0.3z"/>
  <polygon class="cls-3" points="109.9 82.6 122.4 82.7 122.2 83.4 110.1 83.4"/>
  <path class="cls-4" d="m109.9 60-0.3 1.9h11.4l-0.1-2-11 0.1z"/>
  <path class="cls-4" d="m110 62.1 0.1 1.5 11-0.2v-1.5l-11.1 0.2z"/>
  <path class="cls-1" d="m91.6 54.9 0.8 0.1c1.6-0.8 6.8-1.6 9.8-0.4l0.2 0.9-0.2-0.1v1.7c-3.1-1-7.7-0.7-10.2-0.1h-0.4v-2.1z"/>
  <path class="cls-3" d="m91.5 55.6c2.6-1.2 7.9-1.5 10.7-0.2v0.5c-2.6-0.8-7-1.2-10.3-0.2l-0.4-0.1z"/>
  <path class="cls-4" d="m71.2 50.7c-1.8 0.5-3.2 2.4-2.2 2.7s2-2 6-1.8c3.4 0 4.4 2 5 1.8 0.6-1.7-4.1-4.2-8.8-2.7z"/>
  <path class="cls-0" d="m33.1 105.2 0.3 0.3c4.3 0.6 7.6-1 9.8-3.5 3.4-3.4 6.4-8.1 12.7-10.3 8.1-2.8 14-0.7 22.1 0.3 12 1.2 14.4-1.3 17.2-2 3.4-0.8 6.8 0.7 2.5 5-1.6 1.6-3.3 2.7-5.9 3.7-2.8 1.3-7.3 2.5-12.7 2.3-5.5-0.3-11.2 1-11.5 1.1 4.4-0.1 10.3 0.5 13.8 1 7.6 0.5 11.6-1 14.6-2.2 7.9-3.5 12.7-8.2 17.2-11 3.3-2.2 6.3-4 8.5-2.3h-0.1 0.1l0.2 0.1-0.8 1.5c-4.6 4.7-15.1 13.8-22.7 18.5-6.5 3.9-14 6.3-17.4 6.9 4 0.5 12.4-1.2 18.9-5.1 6.1-3.4 18.2-13.8 21.8-17.6 1.7-2 3.4-5.8 3.7-6.2 3.7-4.1 8.8-8.5 9-8.3-1.8 7.8-5 15.6-10.5 22.5-8.3 10.3-20.9 18-35.7 20.5-4.2 0.8-7.6 1.1-13 1.1-13.3 0-26.3-3.8-35.6-10.4-3.9-2.5-6.6-5.5-6.5-5.9z"/>
  <path class="cls-4" d="m109.9 63c2.2-0.4 8.7-0.4 11.1-0.1v0.5c-4.1-0.2-10.4 0-11.1 0.1v-0.5z"/>
  <path class="cls-0" d="m117.1 57-0.4 1.9h0.9l0.1-2-0.6 0.1z"/>
  <path class="cls-3" d="m113.1 58h0.3l-0.3 1.1-0.7-0.1 0.7-1z"/>
  <path class="cls-3" d="m116.5 57.4 0.5 1.5h-0.6z"/>
  <path class="cls-5" d="m16.6 161.6 52.4-0.1c0.6 0 0.5 0.9 0.1 0.9-4.1 0-52.5-0.2-52.6-0.4l0.1-0.4z"/>
  <path class="cls-6" d="m131 161.9"/>
  <path class="cls-5" d="m80.5 161.6c0-0.2 0.4-0.1 0.5-0.2l39.9 0.1 10.1 0.1s0.2 0.3-0.4 2.5"/>
  <path class="cls-5" d="m72 162 3.2-3.3 3.2 3.4-3 3.1-3.4-3.2z"/>
  <path class="cls-7" d="m135.4 172.6c0.8-0.4 8.5-0.2 8.8 0-0.1 0.8-7.2 0.3-8.8 0.4v-0.4z"/>
  <path class="cls-7" d="m6.4 172.6c0.7-0.4 7.1-0.4 7.5 0v0.5c-3.2-0.2-6.4-0.1-7.5 0v-0.5z"/>
  <path class="cls-1" d="m127 167.7"/>
  <path class="cls-1" d="m38.2 124.2c-2.2 0.2-5.3 1-5.3 3l0.1 20.7c0 3-3.1 4.7-6.4 4.6-4.5-0.1-6.9-2.4-7-6.6 0-1.8 0.6-3.8 1.9-5.3-2.5-0.6-6.5 1.8-6.1 7.3 0.2 4.2 3.5 8.8 10.2 9.1 7.4 0.6 12.8-2.5 12.6-8.6v-24.2z"/>
  <path class="cls-1" d="m64 124.1c-1.5 0.3-5.1 0.9-5.1 2.6v16c-0.2 2.4-1.3 2.9-3.4 2.9-1.4 0-1.3-0.9-1.5-2.7l-1.1-11.9c-0.3-2.1-2.4-2.5-5.8-2.9l1.9 17.4-5.5 0.1c-0.5 0.5-0.4 3.8-0.3 4.3h14.7c1.8 0 3.2-0.9 4.1-2 0.6 1.1 2 2 3.7 2h25.9c1.9 0 3-0.5 4-1.7 0.6 1 2 1.8 3.8 1.8h16.6c3.4 0 5.5-1 5.9-5.1l-0.5-19.8c-1.4 0.1-5.2 0.8-5.2 3.3v15.5c-0.2 0.7-0.6 1.6-1.2 1.7l-15.6 0.1-2-0.2c1.5-7.4-4.7-13.5-11.9-13.5-2.4 0-5.3 0.5-5.5 1.5l0.2 2.4c-4 1.7-5.6 4.7-4.1 8.7l0.6 1h-11.1c-1.5 0-1.6-1.2-1.6-3v-18.5z"/>
  <path class="cls-4" d="m83.6 139.1c-1.6-0.2-3.5 0.6-3.7 2.9-0.4 1.6 0.8 3.5 2.8 3.4 2.2 0 2.9-1.2 3-2.5 0.4-1.7-0.7-3.7-2.1-3.8z"/>
  <path class="cls-4" d="m83.7 137 2.9-0.5c2.8-0.1 5.8 2.7 5.6 5.7 0 1.7 0 3.4-1.2 3.5h-3.3c2.9-2.8 1-8.3-4-8.7z"/>
  <path class="cls-1" d="m127 151.1h5.7v-26c-1.7 0.3-4.8 0.8-5.7 2.6v23.4z"/>
  <path class="cls-1" d="m24 175.6c-0.8 0-1.4-0.2-1.6-1-0.3 0.8-1.8 1.1-3 0.6-1.8-0.7-1.5-4 1.2-4.8 2.6-0.5 3.4 0.7 3.3 3.1 0.1 0.5 0.1 0.5 0.5 0.9h0.8c1 0 2.5-0.4 2.4-1.4v-5h1.1v4.9c0 1 1.3 1.5 1.7 1.2h1.2c-0.7-1.7 0.1-3.6 2.4-4 2.6-0.1 3.9 3.5 1.7 5-1.1 0.5-2.6 0.8-3.6 0.1l-0.7 0.4h-1.9c-0.6 0-1.1-0.4-1.5-1-0.5 0.5-1.5 1-2.8 1h-1.2zm-2.1-4c0-0.5-2.3-0.9-2.3 1.1 0 1.7 2.8 1.5 2.8 0.4l-0.5-1.5zm12.6-0.2c-1.1-0.5-2.4 0.7-1.8 2.2 0.3 1 3.2 1 2.8-1 0-0.5-0.4-1-1-1.2z"/>
  <path class="cls-1" d="m38.6 168.1 0.9-0.1 0.4 0.1 0.1 5c0 1 0.7 1.1 1.6 1.1h1.8c-0.5-1.6-0.9-3.7 2.1-4.1 2.6-0.1 3 3.3 1.9 4 1.8 0.1 3.8 0.5 4.1-0.7l0.1-5.4 1-0.4 0.3 0.4v5.6c-0.2 1.9-1.4 2-2.5 2l-3.8-0.1-0.5-0.1c-0.5 0.2-5 0.2-5.6 0.1-1.5-0.1-1.9-1.1-1.9-2.9v-4.5zm6.9 3.3c-1.6 0.1-1.3 2.8 0.5 2.6 1.1 0 1.4-2.8-0.5-2.6z"/>
  <path class="cls-1" d="m55.2 167.9 1.3-0.3 0.1 0.4v7.5h-1.1l-0.1-7.6h-0.2z"/>
  <path class="cls-1" d="m61.4 172.9h1c0 2.6 1 3.7 3.6 3.6 2 0 2.5-0.9 1.5-1.6-1.1-0.7-3.4-0.5-3.3-2.9 0.3-2 4.3-2.8 4.9-0.9l-0.1 0.6c-1.1-0.5-3-1.2-3.5 0.3 0.1 2 4.2 1 3.7 4-0.6 2-6.3 2.6-7.6 0.4-0.4-0.7-0.6-2-0.2-3.5z"/>
  <path class="cls-1" d="m63.9 179.2 0.7 0.3 0.6 0.4-0.6 1.1-1-0.6 0.4-1-0.1-0.2z"/>
  <path class="cls-1" d="m66 179.2h0.9l0.3 1-0.6 0.8-0.9-0.6 0.3-1v-0.2z"/>
  <path class="cls-1" d="m71.5 175c-0.5 0-1.3-0.1-1-0.9 0.7-0.5 3.9 0.9 3.9-1-0.2-1.5-1.9-1.7-2.8-2.1l0.8-0.9c1.6-0.7 4 1.6 3.1 4-0.6 1.4-4.1 1.5-3.9 0.9h-0.1z"/>
  <path class="cls-1" d="m77.7 168.4 0.4-0.4 0.8 0.2v4.8c0.1 1.5 1.2 1.1 2 1.1 2.2 0.3 1.7-1 1.5-4.1h1.2c0.3 1.5 0.6 5.5-1.6 5.5-3.8 0-4.4 0.2-4.3-3.9v-3.2z"/>
  <path class="cls-1" d="m80.6 177.5 0.9-0.9 1.1 0.8-0.7 0.8-1.3-0.7z"/>
  <path class="cls-1" d="m82.6 177.5 0.8-0.9 0.8 0.4 0.2 0.5-0.7 0.7-1.1-0.5v-0.2z"/>
  <path class="cls-1" d="m86 174.2 2.6-0.2v-4h1l0.4 4h1.4c0.7-0.1 1-0.5 1-2v-4l1.2-0.4v6c0 1-0.5 1.9-2 1.9s-5 0.5-5.5 0l-0.1-1.3z"/>
  <path class="cls-1" d="m87.2 167.1 0.5-0.4 0.9 0.2 0.4-0.3 1.4 0.4v0.6l-1 0.4h-0.8l-0.4-0.1h-0.6l-0.4-0.4v-0.4z"/>
  <path class="cls-1" d="m95.7 167.6 1-0.4 0.4 0.4v7.9h-1.2l-0.2-7.9z"/>
  <path class="cls-1" d="m101.5 170.7 0.9-0.3 0.2 0.3c0.1 1.9-0.7 3.7 1.8 3.4 5.2-0.1 5.5 0.9 5.1-3.6h0.6l0.5 0.2v3.3l2.5 0.1c1.6 0 2.4 0 2.4-1.5v-4.5h1.1l0.4 0.4-0.3 4.5c0.2 1.6 1.8 1.1 5.4 1.1 1.9 0 2.4-0.1 2-1.6-0.6-1.6-2.5-1.5-3.4-0.6l-1.5-0.2c0.2-1.6 3.8-2.6 5.3-0.8 1.1 0.8 0.9 2.7 1.7 3.1h2.4c0.8-0.1 1-0.4 1-2l-0.6-3.9h1.4v5.5c0 0.9-0.5 2-1.9 2h-2.4c-0.9 0-1.4-0.5-1.4-0.7-0.8 0.7-6.7 0.8-7.8 0.6-0.7-0.1-0.8-0.4-1.3-0.8-0.7 1.2-3.4 0.8-4 0.7l-1.2-0.4-0.7 0.4c-1.2 0.2-5.2 0.2-6.6 0.1-2.2-0.4-1.7-2.4-1.7-4.9h0.1z"/>
  <path class="cls-1" d="m121.6 177.4 1-0.8 1 0.8-0.5 0.8-1.2-0.3-0.3-0.5z"/>
  <path class="cls-1" d="m105 177.4 1.4-1 1.6 0.7-0.6 0.8-0.9 0.6-0.5-0.6h-1v-0.5z"/>
  <path class="cls-1" d="m19.4 169 0.8-1.1 1.2 0.6 1-0.5 0.6 0.5v0.7l-1.3 0.2-2.3-0.4z"/>
</svg>